<mxfile host="app.diagrams.net" agent="Mozilla/5.0 (Windows NT 10.0; Win64; x64) AppleWebKit/537.36 (KHTML, like Gecko) Chrome/135.0.0.0 Safari/537.36" version="26.3.0">
  <diagram name="第1頁" id="IQ8qcBzU56N4cKw-W2Sm">
    <mxGraphModel dx="2762" dy="644" grid="1" gridSize="10" guides="1" tooltips="1" connect="1" arrows="1" fold="1" page="1" pageScale="1" pageWidth="1169" pageHeight="827" math="0" shadow="1">
      <root>
        <mxCell id="0" />
        <mxCell id="1" parent="0" />
        <mxCell id="srRPKGeRtmj4ri8RX7YH-1" value="package" style="shape=folder;fontStyle=1;spacingTop=10;tabWidth=340;tabHeight=40;tabPosition=left;html=1;whiteSpace=wrap;" vertex="1" parent="1">
          <mxGeometry x="-300" y="130" width="1630" height="1290" as="geometry" />
        </mxCell>
        <mxCell id="7chn3XChBuANweNMxz1Z-21" value="" style="shape=folder;fontStyle=0;spacingTop=10;tabWidth=120;tabHeight=30;tabPosition=left;html=1;whiteSpace=wrap;" parent="1" vertex="1">
          <mxGeometry x="20" y="660" width="840" height="250" as="geometry" />
        </mxCell>
        <mxCell id="7chn3XChBuANweNMxz1Z-1" value="&lt;p&gt;&lt;br&gt;&lt;/p&gt;" style="shape=folder;fontStyle=0;spacingTop=10;tabWidth=110;tabHeight=30;tabPosition=left;html=1;whiteSpace=wrap;align=center;" parent="1" vertex="1">
          <mxGeometry x="110" y="280" width="970" height="240" as="geometry" />
        </mxCell>
        <mxCell id="7chn3XChBuANweNMxz1Z-6" value="&lt;font style=&quot;font-size: 14px;&quot;&gt;&lt;code data-start=&quot;161&quot; data-end=&quot;165&quot; style=&quot;&quot;&gt;UI&lt;/code&gt;&lt;font style=&quot;vertical-align: inherit;&quot;&gt;（使用者介面套件）&lt;/font&gt;&lt;/font&gt;" style="text;html=1;align=center;verticalAlign=middle;whiteSpace=wrap;rounded=0;fontStyle=0" parent="1" vertex="1">
          <mxGeometry x="493.99925925925925" y="319.9975409836066" width="181.48148148148147" height="48.68852459016394" as="geometry" />
        </mxCell>
        <mxCell id="7chn3XChBuANweNMxz1Z-11" value="&lt;font style=&quot;font-size: 14px;&quot;&gt;社群分享頁面&lt;/font&gt;" style="shape=folder;fontStyle=0;spacingTop=10;tabWidth=40;tabHeight=14;tabPosition=left;html=1;whiteSpace=wrap;" parent="1" vertex="1">
          <mxGeometry x="700" y="380" width="170" height="120" as="geometry" />
        </mxCell>
        <mxCell id="7chn3XChBuANweNMxz1Z-13" value="&lt;font style=&quot;font-size: 14px;&quot;&gt;歷史紀錄瀏覽&lt;/font&gt;" style="shape=folder;fontStyle=0;spacingTop=10;tabWidth=40;tabHeight=14;tabPosition=left;html=1;whiteSpace=wrap;" parent="1" vertex="1">
          <mxGeometry x="890" y="380" width="170" height="120" as="geometry" />
        </mxCell>
        <mxCell id="7chn3XChBuANweNMxz1Z-14" value="&lt;span style=&quot;font-size: 14px;&quot;&gt;夢境解析儀表板&lt;/span&gt;" style="shape=folder;fontStyle=0;spacingTop=10;tabWidth=40;tabHeight=14;tabPosition=left;html=1;whiteSpace=wrap;" parent="1" vertex="1">
          <mxGeometry x="510" y="380" width="170" height="120" as="geometry" />
        </mxCell>
        <mxCell id="7chn3XChBuANweNMxz1Z-15" value="&lt;font style=&quot;font-size: 14px;&quot;&gt;夢境輸入頁&lt;/font&gt;" style="shape=folder;fontStyle=0;spacingTop=10;tabWidth=40;tabHeight=14;tabPosition=left;html=1;whiteSpace=wrap;" parent="1" vertex="1">
          <mxGeometry x="320" y="380" width="170" height="120" as="geometry" />
        </mxCell>
        <mxCell id="7chn3XChBuANweNMxz1Z-16" value="&lt;font style=&quot;font-size: 14px;&quot;&gt;登入/註冊模組&lt;/font&gt;" style="shape=folder;fontStyle=0;spacingTop=10;tabWidth=40;tabHeight=14;tabPosition=left;html=1;whiteSpace=wrap;" parent="1" vertex="1">
          <mxGeometry x="130" y="380" width="170" height="120" as="geometry" />
        </mxCell>
        <mxCell id="7chn3XChBuANweNMxz1Z-18" value="&lt;code data-start=&quot;279&quot; data-end=&quot;293&quot;&gt;&lt;font style=&quot;font-size: 14px;&quot;&gt;Frontend API&lt;/font&gt;&lt;/code&gt;&lt;div&gt;&lt;font size=&quot;3&quot;&gt;（前端 API 封裝）&lt;/font&gt;&lt;/div&gt;" style="shape=folder;fontStyle=0;spacingTop=10;tabWidth=40;tabHeight=14;tabPosition=left;html=1;whiteSpace=wrap;" parent="1" vertex="1">
          <mxGeometry x="50" y="740" width="180" height="140" as="geometry" />
        </mxCell>
        <mxCell id="7chn3XChBuANweNMxz1Z-22" value="&lt;font style=&quot;font-size: 14px;&quot;&gt;Service&lt;/font&gt;&lt;div&gt;&lt;font size=&quot;3&quot;&gt;（業務服務）&lt;/font&gt;&lt;/div&gt;" style="shape=folder;fontStyle=0;spacingTop=10;tabWidth=40;tabHeight=14;tabPosition=left;html=1;whiteSpace=wrap;" parent="1" vertex="1">
          <mxGeometry x="650" y="740" width="180" height="140" as="geometry" />
        </mxCell>
        <mxCell id="7chn3XChBuANweNMxz1Z-23" value="&lt;font style=&quot;font-size: 14px;&quot;&gt;Controller&lt;/font&gt;&lt;div&gt;&lt;font style=&quot;&quot; size=&quot;3&quot;&gt;（處理路由與請求）&lt;/font&gt;&lt;/div&gt;" style="shape=folder;fontStyle=0;spacingTop=10;tabWidth=40;tabHeight=14;tabPosition=left;html=1;whiteSpace=wrap;" parent="1" vertex="1">
          <mxGeometry x="250" y="740" width="180" height="140" as="geometry" />
        </mxCell>
        <mxCell id="7chn3XChBuANweNMxz1Z-25" value="&lt;font style=&quot;font-size: 14px;&quot;&gt;Middleware&lt;/font&gt;&lt;div&gt;&lt;font size=&quot;3&quot;&gt;（安全驗證、日誌等）&lt;/font&gt;&lt;/div&gt;" style="shape=folder;fontStyle=0;spacingTop=10;tabWidth=40;tabHeight=14;tabPosition=left;html=1;whiteSpace=wrap;" parent="1" vertex="1">
          <mxGeometry x="450" y="740" width="180" height="140" as="geometry" />
        </mxCell>
        <mxCell id="7chn3XChBuANweNMxz1Z-27" value="&lt;span style=&quot;color: rgba(0, 0, 0, 0); font-family: monospace; font-size: 0px; text-align: start; text-wrap-mode: nowrap;&quot;&gt;%3CmxGraphModel%3E%3Croot%3E%3CmxCell%20id%3D%220%22%2F%3E%3CmxCell%20id%3D%221%22%20parent%3D%220%22%2F%3E%3CmxCell%20id%3D%222%22%20value%3D%22%26lt%3Bfont%20style%3D%26quot%3Bfont-size%3A%2014px%3B%26quot%3B%26gt%3B%E6%AD%B7%E5%8F%B2%E7%B4%80%E9%8C%84%E7%80%8F%E8%A6%BD%26lt%3B%2Ffont%26gt%3B%22%20style%3D%22shape%3Dfolder%3BfontStyle%3D1%3BspacingTop%3D10%3BtabWidth%3D40%3BtabHeight%3D14%3BtabPosition%3Dleft%3Bhtml%3D1%3BwhiteSpace%3Dwrap%3B%22%20vertex%3D%221%22%20parent%3D%221%22%3E%3CmxGeometry%20x%3D%22890%22%20y%3D%22380%22%20width%3D%22170%22%20height%3D%22120%22%20as%3D%22geometry%22%2F%3E%3C%2FmxCell%3E%3C%2Froot%3E%3C%2FmxGraphModel%3E&lt;/span&gt;" style="shape=folder;fontStyle=0;spacingTop=10;tabWidth=40;tabHeight=14;tabPosition=left;html=1;whiteSpace=wrap;" parent="1" vertex="1">
          <mxGeometry x="980" y="600" width="240" height="470" as="geometry" />
        </mxCell>
        <mxCell id="7chn3XChBuANweNMxz1Z-28" value="&lt;font style=&quot;font-size: 14px;&quot;&gt;情緒解析&lt;/font&gt;" style="shape=folder;fontStyle=0;spacingTop=10;tabWidth=40;tabHeight=14;tabPosition=left;html=1;whiteSpace=wrap;" parent="1" vertex="1">
          <mxGeometry x="1015" y="660" width="170" height="120" as="geometry" />
        </mxCell>
        <mxCell id="7chn3XChBuANweNMxz1Z-29" value="&lt;font style=&quot;font-size: 14px;&quot;&gt;夢境分析&lt;/font&gt;" style="shape=folder;fontStyle=0;spacingTop=10;tabWidth=40;tabHeight=14;tabPosition=left;html=1;whiteSpace=wrap;" parent="1" vertex="1">
          <mxGeometry x="1015" y="790" width="170" height="120" as="geometry" />
        </mxCell>
        <mxCell id="7chn3XChBuANweNMxz1Z-31" value="&lt;font style=&quot;font-size: 14px;&quot;&gt;新聞語意比對模組&lt;/font&gt;" style="shape=folder;fontStyle=0;spacingTop=10;tabWidth=40;tabHeight=14;tabPosition=left;html=1;whiteSpace=wrap;" parent="1" vertex="1">
          <mxGeometry x="1015" y="930" width="170" height="120" as="geometry" />
        </mxCell>
        <mxCell id="7chn3XChBuANweNMxz1Z-32" value="&lt;font style=&quot;font-size: 14px;&quot;&gt;&lt;code data-start=&quot;541&quot; data-end=&quot;553&quot;&gt;AIAnalysis&lt;/code&gt;&lt;/font&gt;&lt;div&gt;&lt;font style=&quot;font-size: 14px;&quot;&gt;（AI 分析模組）&lt;/font&gt;&lt;/div&gt;" style="text;html=1;align=center;verticalAlign=middle;whiteSpace=wrap;rounded=0;fontStyle=0" parent="1" vertex="1">
          <mxGeometry x="1020" y="620" width="150" height="30" as="geometry" />
        </mxCell>
        <mxCell id="7chn3XChBuANweNMxz1Z-33" value="&lt;font style=&quot;font-size: 14px;&quot;&gt;&lt;code data-end=&quot;395&quot; data-start=&quot;378&quot;&gt;Backend Service&lt;/code&gt;（後端伺服器套件）&lt;/font&gt;" style="text;html=1;align=center;verticalAlign=middle;whiteSpace=wrap;rounded=0;" parent="1" vertex="1">
          <mxGeometry x="302.5" y="700" width="245" height="30" as="geometry" />
        </mxCell>
        <mxCell id="7chn3XChBuANweNMxz1Z-34" value="" style="shape=folder;fontStyle=1;spacingTop=10;tabWidth=90;tabHeight=20;tabPosition=left;html=1;whiteSpace=wrap;" parent="1" vertex="1">
          <mxGeometry x="520" y="1070" width="410" height="220" as="geometry" />
        </mxCell>
        <mxCell id="7chn3XChBuANweNMxz1Z-35" value="&lt;font style=&quot;font-size: 14px;&quot;&gt;&lt;code data-end=&quot;803&quot; data-start=&quot;798&quot;&gt;DAO&lt;/code&gt;&lt;/font&gt;&lt;div&gt;&lt;font style=&quot;font-size: 14px;&quot;&gt;資料存取物件&lt;/font&gt;&lt;/div&gt;" style="shape=folder;fontStyle=0;spacingTop=10;tabWidth=40;tabHeight=14;tabPosition=left;html=1;whiteSpace=wrap;" parent="1" vertex="1">
          <mxGeometry x="540" y="1150" width="170" height="120" as="geometry" />
        </mxCell>
        <mxCell id="7chn3XChBuANweNMxz1Z-36" value="&lt;font style=&quot;font-size: 14px;&quot;&gt;&lt;code data-end=&quot;823&quot; data-start=&quot;815&quot;&gt;Schema&lt;/code&gt;&lt;/font&gt;&lt;div&gt;&lt;font style=&quot;font-size: 14px;&quot;&gt;定義資料格式&lt;/font&gt;&lt;/div&gt;" style="shape=folder;fontStyle=0;spacingTop=10;tabWidth=40;tabHeight=14;tabPosition=left;html=1;whiteSpace=wrap;" parent="1" vertex="1">
          <mxGeometry x="744" y="1150" width="170" height="120" as="geometry" />
        </mxCell>
        <mxCell id="7chn3XChBuANweNMxz1Z-37" value="&lt;font style=&quot;font-size: 14px;&quot;&gt;Database&lt;/font&gt;" style="text;html=1;align=center;verticalAlign=middle;whiteSpace=wrap;rounded=0;" parent="1" vertex="1">
          <mxGeometry x="695" y="1100" width="65" height="30" as="geometry" />
        </mxCell>
        <mxCell id="7chn3XChBuANweNMxz1Z-38" value="&lt;h4 class=&quot;&quot; data-end=&quot;899&quot; data-start=&quot;868&quot;&gt;&lt;font style=&quot;font-size: 14px; font-weight: normal;&quot;&gt;&lt;code data-end=&quot;896&quot; data-start=&quot;876&quot;&gt;Security &amp;amp; Privacy&lt;/code&gt; 套件&lt;/font&gt;&lt;/h4&gt;&lt;div&gt;&lt;font style=&quot;font-size: 14px; font-weight: normal;&quot;&gt;(帳號驗證、資料加密)&lt;/font&gt;&lt;/div&gt;" style="shape=folder;fontStyle=1;spacingTop=10;tabWidth=40;tabHeight=14;tabPosition=left;html=1;whiteSpace=wrap;" parent="1" vertex="1">
          <mxGeometry x="140" y="1070" width="250" height="180" as="geometry" />
        </mxCell>
        <mxCell id="srRPKGeRtmj4ri8RX7YH-2" value="&lt;font style=&quot;font-size: 18px;&quot;&gt;User&lt;/font&gt;" style="shape=folder;fontStyle=1;spacingTop=10;tabWidth=40;tabHeight=14;tabPosition=left;html=1;whiteSpace=wrap;" vertex="1" parent="1">
          <mxGeometry x="-200" y="340" width="160" height="120" as="geometry" />
        </mxCell>
        <mxCell id="srRPKGeRtmj4ri8RX7YH-3" value="" style="html=1;verticalAlign=bottom;endArrow=open;dashed=1;endSize=8;curved=0;rounded=0;entryX=0;entryY=0;entryDx=0;entryDy=135;entryPerimeter=0;" edge="1" parent="1" target="7chn3XChBuANweNMxz1Z-1">
          <mxGeometry relative="1" as="geometry">
            <mxPoint x="-40" y="414.0048905109487" as="sourcePoint" />
            <mxPoint x="90" y="452.90999999999997" as="targetPoint" />
          </mxGeometry>
        </mxCell>
        <mxCell id="srRPKGeRtmj4ri8RX7YH-4" value="&lt;font style=&quot;font-size: 18px;&quot;&gt;DreamEcho AI 系統&lt;/font&gt;" style="text;html=1;align=center;verticalAlign=middle;whiteSpace=wrap;rounded=0;" vertex="1" parent="1">
          <mxGeometry x="-260" y="140" width="260" height="30" as="geometry" />
        </mxCell>
        <mxCell id="srRPKGeRtmj4ri8RX7YH-5" value="&lt;table&gt;&lt;tbody&gt;&lt;tr data-end=&quot;730&quot; data-start=&quot;676&quot;&gt;&lt;td data-col-size=&quot;sm&quot; data-end=&quot;682&quot; data-start=&quot;676&quot;&gt;&lt;font style=&quot;font-size: 14px;&quot;&gt;應用層&lt;/font&gt;&lt;/td&gt;&lt;td data-col-size=&quot;md&quot; data-end=&quot;709&quot; data-start=&quot;682&quot;&gt;&lt;font size=&quot;3&quot;&gt;&lt;code data-end=&quot;691&quot; data-start=&quot;684&quot;&gt;&lt;span style=&quot;white-space: pre;&quot;&gt;&#x9;&lt;/span&gt;UI 套件&lt;/code&gt; + &lt;code data-end=&quot;708&quot; data-start=&quot;694&quot;&gt;Frontend API&lt;/code&gt;&lt;/font&gt;&lt;/td&gt;&lt;td data-col-size=&quot;sm&quot; data-end=&quot;730&quot; data-start=&quot;709&quot;&gt;&lt;font size=&quot;3&quot;&gt;&lt;span style=&quot;white-space: pre;&quot;&gt;&#x9;&lt;/span&gt;使用者輸入介面與 API 請求入口&lt;/font&gt;&lt;/td&gt;&lt;/tr&gt;&lt;/tbody&gt;&lt;/table&gt;&lt;table&gt;&lt;tbody&gt;&lt;tr data-end=&quot;821&quot; data-start=&quot;731&quot;&gt;&lt;td data-col-size=&quot;sm&quot; data-end=&quot;737&quot; data-start=&quot;731&quot;&gt;&lt;font size=&quot;3&quot;&gt;邏輯層&lt;/font&gt;&lt;/td&gt;&lt;td data-col-size=&quot;md&quot; data-end=&quot;804&quot; data-start=&quot;737&quot;&gt;&lt;font size=&quot;3&quot;&gt;&lt;code data-end=&quot;751&quot; data-start=&quot;739&quot;&gt;&lt;span style=&quot;white-space: pre;&quot;&gt;&#x9;&lt;/span&gt;Controller&lt;/code&gt;, &lt;code data-end=&quot;762&quot; data-start=&quot;753&quot;&gt;Service&lt;/code&gt;, &lt;code data-end=&quot;776&quot; data-start=&quot;764&quot;&gt;Middleware&lt;/code&gt;, &lt;code data-end=&quot;789&quot; data-start=&quot;778&quot;&gt;WebSocket&lt;/code&gt;, &lt;code data-end=&quot;803&quot; data-start=&quot;791&quot;&gt;AIAnalysis&lt;/code&gt;&lt;/font&gt;&lt;/td&gt;&lt;td data-col-size=&quot;sm&quot; data-end=&quot;821&quot; data-start=&quot;804&quot;&gt;&lt;font size=&quot;3&quot;&gt;&lt;span style=&quot;white-space: pre;&quot;&gt;&#x9;&lt;/span&gt;負責邏輯處理與 AI 分析&lt;/font&gt;&lt;/td&gt;&lt;/tr&gt;&lt;/tbody&gt;&lt;/table&gt;&lt;table&gt;&lt;tbody&gt;&lt;tr data-end=&quot;868&quot; data-start=&quot;822&quot;&gt;&lt;td data-col-size=&quot;sm&quot; data-end=&quot;828&quot; data-start=&quot;822&quot;&gt;&lt;font size=&quot;3&quot;&gt;資料層&lt;/font&gt;&lt;/td&gt;&lt;td data-col-size=&quot;md&quot; data-end=&quot;858&quot; data-start=&quot;828&quot;&gt;&lt;font size=&quot;3&quot;&gt;&lt;code data-end=&quot;835&quot; data-start=&quot;830&quot;&gt;&lt;span style=&quot;white-space: pre;&quot;&gt;&#x9;&lt;/span&gt;DAO&lt;/code&gt;, &lt;code data-end=&quot;845&quot; data-start=&quot;837&quot;&gt;Schema&lt;/code&gt;, &lt;code data-end=&quot;857&quot; data-start=&quot;847&quot;&gt;Database&lt;/code&gt;&lt;/font&gt;&lt;/td&gt;&lt;td data-col-size=&quot;sm&quot; data-end=&quot;868&quot; data-start=&quot;858&quot;&gt;&lt;font size=&quot;3&quot;&gt;&lt;span style=&quot;white-space: pre;&quot;&gt;&#x9;&lt;/span&gt;持久化儲存層&lt;/font&gt;&lt;/td&gt;&lt;/tr&gt;&lt;/tbody&gt;&lt;/table&gt;&lt;br&gt;&lt;div&gt;&lt;h2 class=&quot;&quot; data-end=&quot;97&quot; data-start=&quot;74&quot;&gt;封裝（Encapsulation）&lt;/h2&gt;&lt;br/&gt;&lt;p class=&quot;&quot; data-end=&quot;139&quot; data-start=&quot;98&quot;&gt;&lt;strong data-end=&quot;104&quot; data-start=&quot;98&quot;&gt;定義&lt;/strong&gt;：將資料（屬性）和操作這些資料的方法包裝在一起，並控制對外的存取權限。&lt;/p&gt;&lt;/div&gt;" style="text;html=1;align=center;verticalAlign=middle;whiteSpace=wrap;rounded=0;" vertex="1" parent="1">
          <mxGeometry x="-10" y="1420" width="810" height="320" as="geometry" />
        </mxCell>
        <mxCell id="srRPKGeRtmj4ri8RX7YH-12" value="" style="html=1;verticalAlign=bottom;endArrow=open;dashed=1;endSize=8;curved=0;rounded=0;exitX=0;exitY=0;exitDx=180;exitDy=77;exitPerimeter=0;entryX=0;entryY=0;entryDx=0;entryDy=242;entryPerimeter=0;" edge="1" parent="1" source="7chn3XChBuANweNMxz1Z-22" target="7chn3XChBuANweNMxz1Z-27">
          <mxGeometry relative="1" as="geometry">
            <mxPoint x="810" y="634.0048905109487" as="sourcePoint" />
            <mxPoint x="860" y="750" as="targetPoint" />
          </mxGeometry>
        </mxCell>
        <mxCell id="srRPKGeRtmj4ri8RX7YH-13" value="" style="html=1;verticalAlign=bottom;endArrow=open;dashed=1;endSize=8;curved=0;rounded=0;entryX=0;entryY=0;entryDx=480;entryDy=30;entryPerimeter=0;exitX=0.5;exitY=1;exitDx=0;exitDy=0;exitPerimeter=0;" edge="1" parent="1" source="7chn3XChBuANweNMxz1Z-1" target="7chn3XChBuANweNMxz1Z-21">
          <mxGeometry relative="1" as="geometry">
            <mxPoint x="340" y="555" as="sourcePoint" />
            <mxPoint x="560" y="550" as="targetPoint" />
          </mxGeometry>
        </mxCell>
        <mxCell id="srRPKGeRtmj4ri8RX7YH-14" value="" style="html=1;verticalAlign=bottom;endArrow=open;dashed=1;endSize=8;curved=0;rounded=0;entryX=0;entryY=0;entryDx=250;entryDy=20;entryPerimeter=0;exitX=0.5;exitY=1;exitDx=0;exitDy=0;exitPerimeter=0;" edge="1" parent="1" source="7chn3XChBuANweNMxz1Z-22" target="7chn3XChBuANweNMxz1Z-34">
          <mxGeometry relative="1" as="geometry">
            <mxPoint x="528" y="920" as="sourcePoint" />
            <mxPoint x="250" y="1175" as="targetPoint" />
          </mxGeometry>
        </mxCell>
        <mxCell id="srRPKGeRtmj4ri8RX7YH-15" value="" style="html=1;verticalAlign=bottom;endArrow=open;dashed=1;endSize=8;curved=0;rounded=0;entryX=0;entryY=0;entryDx=145;entryDy=14;entryPerimeter=0;exitX=0.5;exitY=1;exitDx=0;exitDy=0;exitPerimeter=0;" edge="1" parent="1" source="7chn3XChBuANweNMxz1Z-25" target="7chn3XChBuANweNMxz1Z-38">
          <mxGeometry relative="1" as="geometry">
            <mxPoint x="920" y="880" as="sourcePoint" />
            <mxPoint x="650" y="1090" as="targetPoint" />
          </mxGeometry>
        </mxCell>
      </root>
    </mxGraphModel>
  </diagram>
</mxfile>
